<?xml version="1.0" encoding="utf-8"?>
<!-- Generator: Adobe Illustrator 28.0.0, SVG Export Plug-In . SVG Version: 6.00 Build 0)  -->
<svg version="1.1" id="Layer_1" xmlns="http://www.w3.org/2000/svg" xmlns:xlink="http://www.w3.org/1999/xlink" x="0px" y="0px"
	 viewBox="0 0 348.3 105.1" style="enable-background:new 0 0 348.3 105.1;" xml:space="preserve">
<style type="text/css">
	.st0{fill:#8A8C8E;}
	.st1{fill:#F8971D;}
	.st2{fill:#BCBDC0;}
	.st3{fill:#FBB462;}
</style>
<g>
	<g>
		<g>
			<path class="st0" d="M137.5,68.4h-5l-17.1-41.2h-0.1v41.2h-5.1V23.4h8.8L134.9,62l16-38.6h8.8v45.1h-5.1V27.2h-0.1L137.5,68.4z"
				/>
			<path class="st0" d="M164.1,68.4V23.4h22.8c8.5,0,10.5,4,10.5,11.9c0,4.7-1,7.9-5.7,9.5v0.1c6,1.1,7,5.4,7,11
				c0,8.1-3,12.6-10.6,12.6H164.1z M169.2,43H184c6.1,0,8.2-1.4,8.2-8.4c0-6.1-2.3-6.7-7.7-6.7h-15.4V43z M169.2,63.9h16.2
				c5.5,0,8.2-0.7,8.2-7.6c0-5.9-0.9-9-7.6-8.8h-16.8V63.9z"/>
		</g>
		<g>
			<path class="st1" d="M213.6,36.1c0-12,5.5-13.1,16.6-13.1c9.7,0,16.8,0.4,16.2,12.7h-5.1c-0.2-7.9-1.7-8.2-11.3-8.2
				c-10,0-11.4,1.3-11.4,7.5c0,8.6,4.1,7.9,12.5,8.1c10.7,0.6,16.1,0.3,16.1,12.5c0,12.7-6,13.2-17.4,13.2
				c-11.5,0-17.4-1.4-16.5-14.4h5.1c-0.1,9.9,1.8,9.9,11.4,9.9c9.6,0,12.3,0,12.3-8.8c0-8.6-3.8-7.1-12.1-7.8
				C221.2,46.9,213.6,48,213.6,36.1z"/>
			<path class="st1" d="M256,40.7l0.1,0.1c1.9-3.6,6.2-4.3,10.2-4.3c11.5,0,12.3,6.7,12.3,16.2c0,12.5-3.1,16.1-12.3,16.1
				c-3.6,0-8.4-0.4-10.2-4.1H256v17.4h-4.7V36.9h4.7V40.7z M256,52.7c0,7.5,0.5,12.3,9,12.3c7.3,0,8.7-2,8.7-12.3
				c0-9.4-0.7-12.3-8.7-12.3C256,40.4,256,44.3,256,52.7z"/>
			<g>
				<rect x="282.5" y="23.4" class="st1" width="4.7" height="5.2"/>
				<rect x="282.5" y="36.9" class="st1" width="4.7" height="31.5"/>
			</g>
			<path class="st1" d="M295.8,36.9l-0.2,3.9l0.1,0.1c1.6-3.5,5.4-4.4,9-4.4c6.1,0,8.8,3,8.8,8.9v2.3h-4.5v-2.1
				c0-3.9-1.3-5.2-5.3-5.2c-5.9,0-7.8,2.8-7.7,8.4v19.6h-4.7V36.9H295.8z"/>
			<path class="st1" d="M322.1,28.6h-4.7v-5.2h4.7V28.6z M322.1,68.4h-4.7V36.9h4.7V68.4z"/>
			<path class="st1" d="M347.1,40.7h-12.2v20c0.1,3.4,1,4.2,4.4,4.2c4.4,0,4.4-2.3,4.4-5.3v-2.3h4.5v2.3c0,6.2-2.6,9.2-9.1,9.2
				c-7.4,0-9.1-2.1-9.1-9.5V40.7H326v-3.8h4.2v-7.6h4.7v7.6h12.2V40.7z"/>
		</g>
	</g>
	<g>
		<path class="st1" d="M54,15.3c-20.8,0-37.6,16.7-37.6,37.2c0,20.6,16.8,37.2,37.6,37.2c0.6,0,1.1,0,1.7,0
			c-18.1-0.9-32.5-15.7-32.5-33.8c0-18.7,15.3-33.9,34.2-33.9c18.3,0,33.3,14.2,34.2,32.2c0-0.6,0-1.1,0-1.7
			C91.7,32,74.8,15.3,54,15.3z M81.2,6.7l-8.6,10.1c1.3,0.7,2.6,1.4,3.9,2.2L81.2,6.7z M13.4,52.5c0-0.5,0-1,0-1.6L0,53.2l13.5,2.4
			C13.4,54.6,13.4,53.6,13.4,52.5z M44.3,0l0,13.5c1.5-0.4,3-0.6,4.5-0.8L44.3,0z M23.7,25.8L12,18.9l8.8,10.5
			C21.7,28.2,22.7,27,23.7,25.8z M91.8,37.6c0.6,1.4,1.1,2.8,1.5,4.3l11.9-6.6L91.8,37.6z M12.7,87.1l11.9-6.8
			c-1.1-1.1-2.1-2.3-3-3.5L12.7,87.1z M43.9,105.1l4.7-12.7c-1.5-0.2-3-0.5-4.5-0.9L43.9,105.1z"/>
		<g>
			<g>
				<path class="st2" d="M69.9,38c-3.7-4.2-9.1-6.8-15.2-6.8c-11.2,0-20.2,8.9-20.2,20c0,1.7,0.2,3.3,0.6,4.9C35,55.3,35,54.7,35,54
					c0-11.2,9.2-20.3,20.5-20.3c5.3,0,10.1,2,13.7,5.2C69.4,38.6,69.6,38.3,69.9,38z"/>
				<path class="st3" d="M69.9,38c-2,3.1-5.4,4.8-5.4,4.8c6.1,1.2,10.1,4.8,10.1,4.8C73.4,41.1,69.9,38,69.9,38z"/>
			</g>
			<g>
				<path class="st0" d="M69.6,31.2c7.6,4.7,12.6,13,12.6,22.5c0,14.7-12,26.6-26.9,26.6c-6.1,0-11.7-2-16.2-5.4
					c-0.3,0.3-0.5,0.7-0.7,1c0,0,0,0-0.1-0.1c5,4.9,11.9,8,19.6,8c15.4,0,27.9-12.4,27.9-27.6C85.8,45.1,79.2,35.5,69.6,31.2z"/>
				<path class="st1" d="M30.3,59.9c1.3,10.7,8.1,16.1,8.1,16.1c3.4-5.2,9.1-8.1,9.1-8.1C37.2,65.8,30.3,59.9,30.3,59.9z"/>
			</g>
		</g>
	</g>
</g>
</svg>
