<?xml version="1.0" encoding="utf-8"?>
<!-- Generator: Adobe Illustrator 28.0.0, SVG Export Plug-In . SVG Version: 6.00 Build 0)  -->
<svg version="1.1" id="Layer_1" xmlns="http://www.w3.org/2000/svg" xmlns:xlink="http://www.w3.org/1999/xlink" x="0px" y="0px"
	 viewBox="0 0 278.6 278.5" style="enable-background:new 0 0 278.6 278.5;" xml:space="preserve">
<style type="text/css">
	.st0{fill:#F8971D;}
	.st1{fill:#BCBDC0;}
	.st2{fill:#FBB462;}
	.st3{fill:#8A8C8E;}
</style>
<g>
	<path class="st0" d="M143.2,40.6c-55.1,0-99.8,44.2-99.8,98.7c0,54.5,44.7,98.7,99.8,98.7c1.5,0,3,0,4.5-0.1
		c-48-2.3-86.1-41.6-86.1-89.6c0-49.6,40.6-89.7,90.7-89.7c48.6,0,88.2,37.8,90.6,85.2c0.1-1.5,0.1-3,0.1-4.5
		C243,84.8,198.3,40.6,143.2,40.6z M215.2,17.7l-22.7,26.7c3.5,1.8,7,3.8,10.3,6L215.2,17.7z M35.5,139.3c0-1.4,0.1-2.8,0.1-4.1
		L0,140.9l35.8,6.3C35.6,144.6,35.5,142,35.5,139.3z M117.3,0l0,35.8c3.9-1,7.9-1.7,12-2.2L117.3,0z M62.8,68.4L31.7,50.2l23.4,27.7
		C57.5,74.6,60.1,71.5,62.8,68.4z M243.3,99.6c1.5,3.7,2.8,7.5,3.9,11.4l31.5-17.5L243.3,99.6z M33.6,230.8l31.6-18
		c-2.8-2.9-5.5-6-8-9.2L33.6,230.8z M116.4,278.5l12.4-33.6c-4.1-0.5-8.1-1.3-12-2.3L116.4,278.5z"/>
	<g>
		<g>
			<path class="st1" d="M185.2,100.7c-9.8-11.1-24.2-18.1-40.2-18.1c-29.6,0-53.5,23.7-53.5,53c0,4.5,0.6,8.8,1.7,12.9
				c-0.2-1.8-0.3-3.6-0.3-5.4c0-29.7,24.3-53.7,54.3-53.7c14,0,26.7,5.3,36.3,13.8C184,102.4,184.6,101.6,185.2,100.7z"/>
			<path class="st2" d="M185.2,100.7c-5.4,8.1-14.3,12.8-14.3,12.8c16.2,3.2,26.8,12.7,26.8,12.7C194.6,109,185.2,100.7,185.2,100.7
				z"/>
		</g>
		<g>
			<path class="st3" d="M184.5,82.6c20.1,12.5,33.5,34.5,33.5,59.7c0,38.9-31.9,70.5-71.3,70.5c-16.1,0-31-5.3-42.9-14.3
				c-0.7,0.9-1.3,1.8-2,2.7c0,0-0.1-0.1-0.3-0.2c13.3,13,31.6,21.1,51.9,21.1c40.9,0,74-32.8,74-73.2
				C227.5,119.5,209.9,94.2,184.5,82.6z"/>
			<path class="st0" d="M80.4,158.7c3.3,28.5,21.5,42.6,21.5,42.6c9-13.7,24.1-21.5,24.1-21.5C98.7,174.5,80.4,158.7,80.4,158.7z"/>
		</g>
	</g>
</g>
</svg>
